<svg width="24" height="24" viewBox="0 0 24 24" fill="none" xmlns="http://www.w3.org/2000/svg">
<path fill-rule="evenodd" clip-rule="evenodd" d="M18.3646 5.63607C18.7551 6.02659 18.7551 6.65976 18.3646 7.05028L13.4599 11.9549L18.4097 16.9047C18.8002 17.2952 18.8002 17.9284 18.4097 18.3189C18.0191 18.7094 17.386 18.7094 16.9954 18.3189L12.0457 13.3692L7.05086 18.364C6.66033 18.7545 6.02717 18.7545 5.63664 18.364C5.24612 17.9735 5.24612 17.3403 5.63664 16.9498L10.6315 11.9549L5.68173 7.0052C5.29121 6.61468 5.29121 5.98151 5.68173 5.59099C6.07226 5.20046 6.70542 5.20046 7.09595 5.59099L12.0457 10.5407L16.9504 5.63607C17.3409 5.24554 17.974 5.24554 18.3646 5.63607Z" fill="black"/>
</svg>
