<svg width="24" height="24" viewBox="0 0 24 24" fill="none" xmlns="http://www.w3.org/2000/svg">
<path fill-rule="evenodd" clip-rule="evenodd" d="M1.05078 7.01965C1.05078 6.46737 1.4985 6.01965 2.05078 6.01965H21.9526C22.5049 6.01965 22.9526 6.46737 22.9526 7.01965C22.9526 7.57194 22.5049 8.01965 21.9526 8.01965H2.05078C1.4985 8.01965 1.05078 7.57194 1.05078 7.01965Z" fill="black"/>
<path fill-rule="evenodd" clip-rule="evenodd" d="M1.05078 12C1.05078 11.4477 1.4985 11 2.05078 11H21.9526C22.5049 11 22.9526 11.4477 22.9526 12C22.9526 12.5523 22.5049 13 21.9526 13H2.05078C1.4985 13 1.05078 12.5523 1.05078 12Z" fill="black"/>
<path fill-rule="evenodd" clip-rule="evenodd" d="M1.05078 16.9804C1.05078 16.4281 1.4985 15.9804 2.05078 15.9804H21.9526C22.5049 15.9804 22.9526 16.4281 22.9526 16.9804C22.9526 17.5327 22.5049 17.9804 21.9526 17.9804H2.05078C1.4985 17.9804 1.05078 17.5327 1.05078 16.9804Z" fill="black"/>
</svg>
