<svg width="28" height="28" viewBox="0 0 28 28" fill="none" xmlns="http://www.w3.org/2000/svg">
<path fill-rule="evenodd" clip-rule="evenodd" d="M5.64382 4.02376C5.21442 4.02376 4.8026 4.19434 4.49896 4.49798C4.19532 4.80162 4.02474 5.21344 4.02474 5.64285V22.3574C4.02474 22.7868 4.19532 23.1986 4.49896 23.5022C4.8026 23.8059 5.21442 23.9764 5.64382 23.9764H22.3583C22.7877 23.9764 23.1996 23.8059 23.5032 23.5022C23.8068 23.1986 23.9774 22.7868 23.9774 22.3574V5.64285C23.9774 5.21344 23.8068 4.80162 23.5032 4.49798C23.1996 4.19434 22.7877 4.02376 22.3583 4.02376H5.64382ZM2.84904 2.84807C3.59026 2.10684 4.59558 1.69043 5.64382 1.69043H22.3583C23.4066 1.69043 24.4119 2.10684 25.1531 2.84807C25.8943 3.58929 26.3107 4.5946 26.3107 5.64285V22.3574C26.3107 23.4056 25.8943 24.4109 25.1531 25.1521C24.4119 25.8934 23.4066 26.3098 22.3583 26.3098H5.64382C4.59558 26.3098 3.59026 25.8934 2.84904 25.1521C2.10782 24.4109 1.69141 23.4056 1.69141 22.3574V5.64285C1.69141 4.5946 2.10782 3.58929 2.84904 2.84807Z" fill="#F6EFE4"/>
<path fill-rule="evenodd" clip-rule="evenodd" d="M8.42958 11.4406C9.07391 11.4406 9.59624 11.9629 9.59624 12.6072V19.5716C9.59624 20.2159 9.07391 20.7383 8.42958 20.7383C7.78524 20.7383 7.26291 20.2159 7.26291 19.5716V12.6072C7.26291 11.9629 7.78524 11.4406 8.42958 11.4406Z" fill="#F6EFE4"/>
<path fill-rule="evenodd" clip-rule="evenodd" d="M8.42958 7.26193C9.07391 7.26193 9.59624 7.78427 9.59624 8.4286V8.44199C9.59624 9.08633 9.07391 9.60866 8.42958 9.60866C7.78524 9.60866 7.26291 9.08633 7.26291 8.44199V8.4286C7.26291 7.78427 7.78524 7.26193 8.42958 7.26193Z" fill="#F6EFE4"/>
<path fill-rule="evenodd" clip-rule="evenodd" d="M14.0011 11.4406C14.6454 11.4406 15.1677 11.9629 15.1677 12.6072V19.5716C15.1677 20.2159 14.6454 20.7383 14.0011 20.7383C13.3567 20.7383 12.8344 20.2159 12.8344 19.5716V12.6072C12.8344 11.9629 13.3567 11.4406 14.0011 11.4406Z" fill="#F6EFE4"/>
<path fill-rule="evenodd" clip-rule="evenodd" d="M13.992 12.5982C14.7333 11.857 15.7386 11.4406 16.7868 11.4406C17.8351 11.4406 18.8404 11.857 19.5816 12.5982C20.3228 13.3394 20.7392 14.3447 20.7392 15.393V19.5716C20.7392 20.2159 20.2169 20.7383 19.5726 20.7383C18.9282 20.7383 18.4059 20.2159 18.4059 19.5716V15.393C18.4059 14.9636 18.2353 14.5517 17.9317 14.2481C17.6281 13.9445 17.2162 13.7739 16.7868 13.7739C16.3574 13.7739 15.9456 13.9445 15.642 14.2481C15.3383 14.5517 15.1677 14.9636 15.1677 15.393C15.1677 16.0373 14.6454 16.5596 14.0011 16.5596C13.3567 16.5596 12.8344 16.0373 12.8344 15.393C12.8344 14.3447 13.2508 13.3394 13.992 12.5982Z" fill="#F6EFE4"/>
</svg>
