<svg width="24" height="24" viewBox="0 0 24 24" fill="none" xmlns="http://www.w3.org/2000/svg">
<path fill-rule="evenodd" clip-rule="evenodd" d="M4.83701 3.44873C4.46894 3.44873 4.11595 3.59494 3.85569 3.8552C3.59543 4.11546 3.44922 4.46845 3.44922 4.83652V19.1632C3.44922 19.5313 3.59543 19.8843 3.85569 20.1446C4.11595 20.4048 4.46894 20.551 4.83701 20.551H19.1637C19.5318 20.551 19.8848 20.4048 20.145 20.1446C20.4053 19.8843 20.5515 19.5313 20.5515 19.1632V4.83652C20.5515 4.46845 20.4053 4.11546 20.145 3.8552C19.8848 3.59494 19.5318 3.44873 19.1637 3.44873H4.83701ZM2.44148 2.44099C3.07681 1.80566 3.93851 1.44873 4.83701 1.44873H19.1637C20.0622 1.44873 20.9239 1.80566 21.5593 2.44099C22.1946 3.07632 22.5515 3.93802 22.5515 4.83652V19.1632C22.5515 20.0617 22.1946 20.9234 21.5593 21.5588C20.9239 22.1941 20.0622 22.551 19.1637 22.551H4.83701C3.93851 22.551 3.07681 22.1941 2.44148 21.5588C1.80615 20.9234 1.44922 20.0617 1.44922 19.1632V4.83652C1.44922 3.93802 1.80615 3.07632 2.44148 2.44099Z" fill="black"/>
<path fill-rule="evenodd" clip-rule="evenodd" d="M7.22479 9.80598C7.77708 9.80598 8.22479 10.2537 8.22479 10.806V16.7755C8.22479 17.3277 7.77708 17.7755 7.22479 17.7755C6.67251 17.7755 6.22479 17.3277 6.22479 16.7755V10.806C6.22479 10.2537 6.67251 9.80598 7.22479 9.80598Z" fill="black"/>
<path fill-rule="evenodd" clip-rule="evenodd" d="M7.22479 6.2243C7.77708 6.2243 8.22479 6.67202 8.22479 7.2243V7.23579C8.22479 7.78807 7.77708 8.23579 7.22479 8.23579C6.67251 8.23579 6.22479 7.78807 6.22479 7.23579V7.2243C6.22479 6.67202 6.67251 6.2243 7.22479 6.2243Z" fill="black"/>
<path fill-rule="evenodd" clip-rule="evenodd" d="M12.0004 9.80598C12.5527 9.80598 13.0004 10.2537 13.0004 10.806V16.7755C13.0004 17.3277 12.5527 17.7755 12.0004 17.7755C11.4481 17.7755 11.0004 17.3277 11.0004 16.7755V10.806C11.0004 10.2537 11.4481 9.80598 12.0004 9.80598Z" fill="black"/>
<path fill-rule="evenodd" clip-rule="evenodd" d="M11.9926 10.7982C12.628 10.1629 13.4897 9.80598 14.3882 9.80598C15.2866 9.80598 16.1483 10.1629 16.7837 10.7982C17.419 11.4336 17.7759 12.2953 17.7759 13.1938V16.7755C17.7759 17.3277 17.3282 17.7755 16.7759 17.7755C16.2237 17.7755 15.7759 17.3277 15.7759 16.7755V13.1938C15.7759 12.8257 15.6297 12.4727 15.3695 12.2125C15.1092 11.9522 14.7562 11.806 14.3882 11.806C14.0201 11.806 13.6671 11.9522 13.4068 12.2125C13.1466 12.4727 13.0004 12.8257 13.0004 13.1938C13.0004 13.7461 12.5527 14.1938 12.0004 14.1938C11.4481 14.1938 11.0004 13.7461 11.0004 13.1938C11.0004 12.2953 11.3573 11.4336 11.9926 10.7982Z" fill="black"/>
</svg>
